# xmcd
#
# Track frame offsets:
#	150
#	19380
#	33743
#	47374
#	67776
#	81473
#	100266
#	119299
#	137464
#	152735
#	164213
#	176651
#
# Disc length: 2678 seconds
#
# Revision: 0
# Processed by: cddbd v1.5.1PL0 Copyright (c) Steve Scherf et al.
# Submitted via: audiograbber 1.81.02
#
DISCID=9f0a740c
DTITLE=Various Artist - Country koktejl 2
DYEAR=1998
DGENRE=Country
TTITLE0=Zvony z Harmony
TTITLE1=Tommy
TTITLE2=Hádej
TTITLE3=Don Diego
TTITLE4=Oh Farewell
TTITLE5=Nejde vìøit dál
TTITLE6=Indiana
TTITLE7=Montgomery
TTITLE8=Sám jsi jenom pùl
TTITLE9=Sailing Away On Ocean Spirit
TTITLE10=Té co mám rád
TTITLE11=Waya Con Dios
EXTD=
EXTT0=
EXTT1=
EXTT2=
EXTT3=
EXTT4=
EXTT5=
EXTT6=
EXTT7=
EXTT8=
EXTT9=
EXTT10=
EXTT11=
PLAYORDER=
